<svg width="41" height="41" viewBox="0 0 41 41" fill="none" xmlns="http://www.w3.org/2000/svg">
<path d="M22.155 0C18.398 0 15.3216 3.07633 15.3216 6.83333C15.3216 9.36247 16.7364 11.578 18.7917 12.7591C18.7583 13.0594 18.7383 13.353 18.7383 13.6667C18.7383 18.3646 22.5821 22.2083 27.28 22.2083C31.9779 22.2083 35.8216 18.3646 35.8216 13.6667C35.8216 9.48258 32.7587 5.9458 28.7748 5.23177C28.0541 2.23551 25.3648 0 22.155 0ZM22.155 3.41667C23.543 3.41667 24.7108 4.22412 25.2513 5.39193C23.0158 5.9458 21.1206 7.40723 19.9662 9.34245C19.2321 8.72852 18.7383 7.87435 18.7383 6.83333C18.7383 4.92481 20.2465 3.41667 22.155 3.41667ZM27.28 8.54167C30.1294 8.54167 32.405 10.8172 32.405 13.6667C32.405 16.5161 30.1294 18.7917 27.28 18.7917C24.4305 18.7917 22.155 16.5161 22.155 13.6667C22.155 10.8172 24.4305 8.54167 27.28 8.54167ZM12.7058 20.5C7.2471 20.5 3.05176e-05 23.4896 3.05176e-05 23.4896L1.28128 26.6927C1.28128 26.6927 8.62178 23.9167 12.7058 23.9167C14.3607 23.9167 17.1835 24.931 19.4857 26.1055C20.6335 26.6927 21.6612 27.3066 22.4219 27.8138C22.8023 28.0674 23.1226 28.2943 23.3295 28.4544C23.4296 28.5345 23.503 28.6279 23.543 28.668L23.8099 29.0417C23.9434 29.422 23.9034 29.8491 23.6498 30.2161C23.3228 30.6766 22.7422 30.8568 22.2084 30.6966H22.155L14.7344 27.1198L13.293 30.2161L20.8737 33.8464H20.9271L21.0339 33.8997C23.0091 34.5938 25.218 33.9064 26.4258 32.1914C27.1065 31.2238 27.3067 30.0894 27.1732 28.9883L35.3946 27.6003C36.3021 27.4468 37.1363 28.014 37.4232 28.8815C37.7302 29.8024 37.2964 30.7367 36.4089 31.1237C33.9064 32.2248 29.8825 33.873 26.2657 35.2344C24.4572 35.915 22.7289 36.5156 21.4076 36.9427C20.7469 37.1562 20.173 37.3164 19.7526 37.4232C19.3322 37.5299 18.9919 37.5833 19.1654 37.5833C19.2722 37.5833 18.5848 37.4299 17.7774 36.9961C16.9699 36.5623 15.9556 35.9284 14.9479 35.2878C13.9403 34.6471 12.8993 33.9998 11.905 33.4727C10.9107 32.9455 10.0165 32.4583 8.80862 32.4583C6.01256 32.4583 3.52347 33.526 3.52347 33.526L4.8581 36.6758C4.8581 36.6758 6.94681 35.875 8.80862 35.875C8.76191 35.875 9.48929 36.0285 10.3034 36.4622C11.1175 36.896 12.1252 37.5299 13.1328 38.1706C14.1405 38.8112 15.1481 39.4585 16.1224 39.9857C17.0967 40.5129 17.9509 41 19.1654 41C19.746 41 20.0796 40.8732 20.6068 40.7331C21.134 40.5929 21.7746 40.4261 22.4753 40.1992C23.8767 39.7454 25.5983 39.1315 27.4401 38.4375C31.1171 37.0562 35.1944 35.4212 37.7969 34.2734C40.266 33.1857 41.5339 30.3162 40.6797 27.7604C39.8656 25.318 37.3498 23.8166 34.8073 24.237L25.4649 25.7852C25.4582 25.7785 25.4248 25.7918 25.4115 25.7852C25.3581 25.7451 25.3047 25.665 25.2513 25.625L24.7709 25.2513V25.3047C24.6241 25.1979 24.5173 25.0978 24.3438 24.9844C23.4562 24.3971 22.3018 23.7098 21.0339 23.0625C18.4914 21.7679 15.5085 20.5 12.7058 20.5Z" fill="white"/>
</svg>
