<svg width="31" height="31" viewBox="0 0 31 31" fill="none" xmlns="http://www.w3.org/2000/svg">
<path d="M3.875 7.75L7.75 2.58333H23.25L27.125 7.75M3.875 7.75V25.8333C3.875 26.5185 4.14717 27.1756 4.63164 27.66C5.11611 28.1445 5.77319 28.4167 6.45833 28.4167H24.5417C25.2268 28.4167 25.8839 28.1445 26.3684 27.66C26.8528 27.1756 27.125 26.5185 27.125 25.8333V7.75M3.875 7.75H27.125M20.6667 12.9167C20.6667 14.287 20.1223 15.6011 19.1534 16.5701C18.1844 17.539 16.8703 18.0833 15.5 18.0833C14.1297 18.0833 12.8156 17.539 11.8466 16.5701C10.8777 15.6011 10.3333 14.287 10.3333 12.9167" stroke="white" stroke-width="2.58333" stroke-linecap="round" stroke-linejoin="round"/>
</svg>
